<?xml version="1.0" encoding="UTF-8"?><svg xmlns="http://www.w3.org/2000/svg" viewBox="0 0 450 124.2"><defs><style>.d{fill:#fff;}</style></defs><g id="a"/><g id="b"><g id="c"><path class="d" d="M9.69,77.43c.42,.74,.97,1.34,1.64,1.81,.67,.47,1.44,.82,2.31,1.04,.87,.22,1.78,.34,2.72,.34,.67,0,1.38-.08,2.11-.23,.74-.16,1.41-.4,2.01-.74,.6-.34,1.11-.78,1.51-1.34,.4-.56,.6-1.26,.6-2.11,0-1.43-.95-2.5-2.85-3.22-1.9-.71-4.55-1.43-7.95-2.15-1.39-.31-2.74-.68-4.06-1.11-1.32-.42-2.49-.98-3.52-1.68-1.03-.69-1.86-1.57-2.48-2.62-.63-1.05-.94-2.34-.94-3.86,0-2.24,.44-4.07,1.31-5.5,.87-1.43,2.02-2.56,3.45-3.39,1.43-.83,3.04-1.41,4.83-1.74,1.79-.34,3.62-.5,5.5-.5s3.7,.18,5.47,.54c1.77,.36,3.34,.96,4.73,1.81,1.39,.85,2.54,1.98,3.46,3.39,.92,1.41,1.46,3.19,1.64,5.33h-9.06c-.13-1.83-.83-3.07-2.08-3.72-1.25-.65-2.73-.97-4.43-.97-.54,0-1.12,.03-1.74,.1-.63,.07-1.2,.21-1.71,.44-.51,.22-.95,.55-1.31,.97-.36,.43-.54,1-.54,1.71,0,.85,.31,1.54,.94,2.08s1.44,.97,2.45,1.31c1.01,.34,2.16,.64,3.46,.91,1.3,.27,2.62,.56,3.96,.87,1.39,.31,2.74,.69,4.06,1.14,1.32,.45,2.49,1.04,3.52,1.78,1.03,.74,1.86,1.66,2.48,2.75,.63,1.1,.94,2.45,.94,4.06,0,2.28-.46,4.19-1.38,5.74-.92,1.54-2.11,2.78-3.59,3.72-1.48,.94-3.16,1.6-5.06,1.98-1.9,.38-3.84,.57-5.8,.57s-3.98-.2-5.9-.6c-1.92-.4-3.63-1.07-5.13-2.01-1.5-.94-2.73-2.18-3.69-3.72-.96-1.54-1.49-3.48-1.58-5.8H9.06c0,1.03,.21,1.91,.64,2.65Zm44.58-19.82c-1.52,0-2.8,.35-3.82,1.04-1.03,.69-1.87,1.59-2.52,2.68-.65,1.1-1.11,2.3-1.38,3.62-.27,1.32-.4,2.63-.4,3.92s.13,2.53,.4,3.82c.27,1.3,.7,2.47,1.31,3.52,.6,1.05,1.42,1.91,2.45,2.58,1.03,.67,2.28,1.01,3.76,1.01,2.28,0,4.04-.64,5.27-1.91,1.23-1.27,2-2.99,2.31-5.13h9.19c-.63,4.61-2.42,8.12-5.37,10.53-2.95,2.42-6.73,3.62-11.34,3.62-2.59,0-4.98-.44-7.14-1.31-2.17-.87-4.01-2.09-5.53-3.66-1.52-1.57-2.71-3.43-3.56-5.6-.85-2.17-1.27-4.55-1.27-7.14s.39-5.18,1.17-7.48c.78-2.3,1.93-4.29,3.46-5.97,1.52-1.68,3.38-2.98,5.57-3.92,2.19-.94,4.7-1.41,7.51-1.41,2.06,0,4.04,.27,5.94,.81,1.9,.54,3.6,1.35,5.1,2.45,1.5,1.1,2.72,2.46,3.66,4.09,.94,1.63,1.48,3.57,1.61,5.8h-9.33c-.63-3.98-2.97-5.97-7.04-5.97Zm30.99-6.24v6.44h.13c.45-1.07,1.05-2.07,1.81-2.99,.76-.92,1.63-1.7,2.62-2.35,.98-.65,2.03-1.15,3.15-1.51,1.12-.36,2.28-.54,3.49-.54,.63,0,1.32,.11,2.08,.34v8.85c-.45-.09-.98-.17-1.61-.23-.63-.07-1.23-.1-1.81-.1-1.74,0-3.22,.29-4.43,.87-1.21,.58-2.18,1.38-2.92,2.38-.74,1.01-1.26,2.18-1.58,3.52-.31,1.34-.47,2.8-.47,4.36v15.63h-9.53V51.36h9.06Zm16.03,9.83c.85-2.26,2.06-4.18,3.62-5.77,1.57-1.59,3.44-2.82,5.64-3.69,2.19-.87,4.65-1.31,7.38-1.31s5.2,.44,7.41,1.31c2.21,.87,4.1,2.1,5.67,3.69,1.56,1.59,2.77,3.51,3.62,5.77,.85,2.26,1.28,4.77,1.28,7.55s-.43,5.28-1.28,7.51c-.85,2.24-2.06,4.15-3.62,5.74-1.57,1.59-3.46,2.81-5.67,3.66-2.21,.85-4.69,1.27-7.41,1.27s-5.19-.43-7.38-1.27c-2.19-.85-4.07-2.07-5.64-3.66-1.57-1.59-2.77-3.5-3.62-5.74-.85-2.24-1.27-4.74-1.27-7.51s.42-5.29,1.27-7.55Zm8.65,11.61c.27,1.32,.73,2.51,1.38,3.56,.65,1.05,1.51,1.89,2.58,2.52,1.07,.63,2.42,.94,4.02,.94s2.96-.31,4.06-.94c1.1-.63,1.97-1.46,2.62-2.52,.65-1.05,1.11-2.24,1.38-3.56,.27-1.32,.4-2.67,.4-4.06s-.13-2.75-.4-4.09c-.27-1.34-.73-2.53-1.38-3.56-.65-1.03-1.52-1.87-2.62-2.52-1.1-.65-2.45-.97-4.06-.97s-2.95,.33-4.02,.97c-1.07,.65-1.93,1.49-2.58,2.52-.65,1.03-1.11,2.21-1.38,3.56-.27,1.34-.4,2.71-.4,4.09s.13,2.74,.4,4.06Zm76.27-34.65v17.44h.13c1.16-1.79,2.74-3.1,4.73-3.92,1.99-.83,4.06-1.24,6.21-1.24,1.74,0,3.47,.36,5.17,1.07,1.7,.72,3.23,1.81,4.6,3.29,1.36,1.48,2.47,3.37,3.32,5.67,.85,2.3,1.27,5.04,1.27,8.22s-.43,5.92-1.27,8.22c-.85,2.3-1.96,4.19-3.32,5.67-1.36,1.48-2.9,2.57-4.6,3.29-1.7,.72-3.42,1.07-5.17,1.07-2.55,0-4.83-.4-6.84-1.21-2.01-.81-3.53-2.17-4.56-4.09h-.13v4.43h-9.06V38.15h9.53Zm15.43,26.36c-.31-1.34-.8-2.53-1.48-3.56-.67-1.03-1.51-1.84-2.52-2.45-1.01-.6-2.23-.91-3.66-.91s-2.59,.3-3.62,.91c-1.03,.6-1.88,1.42-2.55,2.45-.67,1.03-1.16,2.21-1.48,3.56-.31,1.34-.47,2.75-.47,4.23s.16,2.82,.47,4.16c.31,1.34,.81,2.53,1.48,3.56,.67,1.03,1.52,1.84,2.55,2.45,1.03,.6,2.24,.91,3.62,.91s2.65-.3,3.66-.91,1.84-1.42,2.52-2.45c.67-1.03,1.16-2.21,1.48-3.56,.31-1.34,.47-2.73,.47-4.16s-.16-2.88-.47-4.23Zm26.23,13.22c1.43,1.39,3.49,2.08,6.17,2.08,1.92,0,3.58-.48,4.96-1.44,1.39-.96,2.24-1.98,2.55-3.05h8.39c-1.34,4.16-3.4,7.13-6.17,8.92-2.77,1.79-6.13,2.68-10.06,2.68-2.73,0-5.19-.44-7.38-1.31-2.19-.87-4.05-2.11-5.57-3.72-1.52-1.61-2.69-3.53-3.52-5.77-.83-2.24-1.24-4.7-1.24-7.38s.42-5.01,1.27-7.25c.85-2.24,2.06-4.17,3.62-5.8,1.56-1.63,3.43-2.92,5.6-3.86,2.17-.94,4.57-1.41,7.21-1.41,2.95,0,5.52,.57,7.71,1.71,2.19,1.14,3.99,2.67,5.4,4.6,1.41,1.92,2.43,4.12,3.05,6.57,.63,2.46,.85,5.03,.67,7.71h-25.02c.13,3.09,.92,5.32,2.35,6.71Zm10.77-18.25c-1.14-1.25-2.87-1.88-5.2-1.88-1.52,0-2.78,.26-3.79,.77-1.01,.51-1.81,1.15-2.42,1.91-.6,.76-1.03,1.57-1.27,2.42-.25,.85-.39,1.61-.44,2.28h15.5c-.45-2.42-1.24-4.25-2.38-5.5Zm27.07-21.33v18.05h.2c1.21-2.01,2.75-3.48,4.63-4.39,1.88-.92,3.71-1.38,5.5-1.38,2.55,0,4.64,.35,6.27,1.04,1.63,.69,2.92,1.66,3.86,2.88,.94,1.23,1.6,2.73,1.98,4.49,.38,1.77,.57,3.72,.57,5.87v21.33h-9.53v-19.59c0-2.86-.45-5-1.34-6.41-.9-1.41-2.48-2.11-4.76-2.11-2.59,0-4.47,.77-5.64,2.31-1.16,1.54-1.74,4.08-1.74,7.61v18.18h-9.53V38.15h9.53Zm29.85,23.88c.13-2.24,.69-4.09,1.68-5.57s2.24-2.66,3.76-3.56c1.52-.89,3.23-1.53,5.13-1.91,1.9-.38,3.81-.57,5.74-.57,1.74,0,3.51,.12,5.3,.37,1.79,.25,3.42,.73,4.9,1.44,1.48,.72,2.68,1.71,3.62,2.98,.94,1.28,1.41,2.96,1.41,5.07v18.05c0,1.57,.09,3.06,.27,4.49,.18,1.43,.49,2.51,.94,3.22h-9.66c-.18-.54-.32-1.08-.44-1.64-.11-.56-.19-1.13-.24-1.71-1.52,1.57-3.31,2.66-5.37,3.29-2.06,.63-4.16,.94-6.31,.94-1.66,0-3.2-.2-4.63-.6-1.43-.4-2.68-1.03-3.76-1.88-1.07-.85-1.91-1.92-2.52-3.22-.6-1.3-.91-2.84-.91-4.63,0-1.97,.35-3.59,1.04-4.86,.69-1.27,1.59-2.29,2.68-3.05,1.1-.76,2.35-1.33,3.76-1.71,1.41-.38,2.83-.68,4.26-.91,1.43-.22,2.84-.4,4.23-.54,1.39-.13,2.62-.34,3.69-.6,1.07-.27,1.92-.66,2.55-1.17,.63-.51,.92-1.26,.87-2.25,0-1.03-.17-1.84-.5-2.45-.33-.6-.78-1.07-1.34-1.41-.56-.34-1.21-.56-1.95-.67-.74-.11-1.53-.17-2.38-.17-1.88,0-3.35,.4-4.43,1.21-1.07,.8-1.7,2.15-1.88,4.02h-9.53Zm22,7.04c-.4,.36-.91,.64-1.51,.84-.6,.2-1.25,.37-1.94,.5-.69,.13-1.42,.25-2.18,.34-.76,.09-1.52,.2-2.28,.34-.72,.13-1.42,.31-2.11,.54-.69,.22-1.3,.53-1.81,.91-.51,.38-.93,.86-1.24,1.44-.31,.58-.47,1.32-.47,2.21s.16,1.57,.47,2.15c.31,.58,.74,1.04,1.27,1.38,.54,.34,1.16,.57,1.88,.7,.72,.13,1.45,.2,2.21,.2,1.88,0,3.33-.31,4.36-.94,1.03-.63,1.79-1.38,2.28-2.25,.49-.87,.79-1.75,.91-2.65,.11-.89,.17-1.61,.17-2.15v-3.56Zm25.49,16.97l-11.87-34.68h9.99l7.31,23.68h.13l7.31-23.68h9.46l-11.74,34.68h-10.6Zm26.57-40.05v-7.85h9.53v7.85h-9.53Zm9.53,5.37v34.68h-9.53V51.36h9.53Zm7.71,9.83c.85-2.26,2.06-4.18,3.62-5.77,1.56-1.59,3.44-2.82,5.64-3.69,2.19-.87,4.65-1.31,7.38-1.31s5.2,.44,7.41,1.31c2.21,.87,4.1,2.1,5.67,3.69,1.56,1.59,2.77,3.51,3.62,5.77,.85,2.26,1.28,4.77,1.28,7.55s-.43,5.28-1.28,7.51c-.85,2.24-2.06,4.15-3.62,5.74-1.57,1.59-3.45,2.81-5.67,3.66s-4.69,1.27-7.41,1.27-5.19-.43-7.38-1.27c-2.19-.85-4.07-2.07-5.64-3.66-1.57-1.59-2.77-3.5-3.62-5.74-.85-2.24-1.28-4.74-1.28-7.51s.43-5.29,1.28-7.55Zm8.65,11.61c.27,1.32,.73,2.51,1.38,3.56,.65,1.05,1.51,1.89,2.58,2.52,1.07,.63,2.41,.94,4.03,.94s2.96-.31,4.06-.94c1.1-.63,1.97-1.46,2.62-2.52,.65-1.05,1.11-2.24,1.37-3.56,.27-1.32,.4-2.67,.4-4.06s-.13-2.75-.4-4.09-.73-2.53-1.37-3.56c-.65-1.03-1.52-1.87-2.62-2.52-1.1-.65-2.45-.97-4.06-.97s-2.95,.33-4.03,.97c-1.07,.65-1.94,1.49-2.58,2.52-.65,1.03-1.11,2.21-1.38,3.56s-.4,2.71-.4,4.09,.13,2.74,.4,4.06Zm41.19-21.43v6.44h.13c.45-1.07,1.05-2.07,1.81-2.99,.76-.92,1.63-1.7,2.62-2.35,.98-.65,2.04-1.15,3.15-1.51,1.12-.36,2.28-.54,3.49-.54,.63,0,1.32,.11,2.08,.34v8.85c-.45-.09-.98-.17-1.61-.23-.63-.07-1.23-.1-1.81-.1-1.74,0-3.22,.29-4.43,.87-1.21,.58-2.18,1.38-2.92,2.38s-1.26,2.18-1.58,3.52c-.31,1.34-.47,2.8-.47,4.36v15.63h-9.53V51.36h9.06Zm-230.98,58.22l-23.12-14.61v9.86h-5.31c-4.48,0-8.13-3.65-8.13-8.13V50.79h-9.49v45.92c0,9.72,7.91,17.63,17.63,17.63h5.31v9.86l23.12-14.61ZM134.24,9.86h-5.31V0l-23.12,14.61,23.12,14.61v-9.86h5.31c4.48,0,8.13,3.65,8.13,8.13v45.92h9.49V27.49c0-9.72-7.91-17.63-17.63-17.63Z"/></g></g></svg>